<svg xmlns="http://www.w3.org/2000/svg" viewBox="0 0 26 26"><defs><style>.cls-1{isolation:isolate;}</style></defs><title>下载</title><g id="图层_2" data-name="图层 2"><g id="移动端样式" class="cls-1"><g id="形状_2" data-name="形状 2"><path d="M12,21.52a1.3,1.3,0,0,0,1.05.56,1.29,1.29,0,0,0,1.05-.56l5.83-8.33a.28.28,0,0,0-.06-.38.25.25,0,0,0-.15-.05H17.74a.25.25,0,0,0-.21.11L14.2,17.62V.27A.26.26,0,0,0,13.94,0H12.12a.27.27,0,0,0-.26.27V17.72L8.47,12.87a.25.25,0,0,0-.21-.11H6.33a.27.27,0,0,0-.26.27.28.28,0,0,0,0,.16Zm13.75,2H.3a.28.28,0,0,0-.3.27v1.9A.28.28,0,0,0,.3,26H25.7a.28.28,0,0,0,.3-.27v-1.9A.28.28,0,0,0,25.7,23.56Z" fill="rgba(255,255,255,1)"/></g></g></g></svg>