<?xml version="1.0" encoding="utf-8"?>
<!-- Generator: Adobe Illustrator 23.0.1, SVG Export Plug-In . SVG Version: 6.00 Build 0)  -->
<svg version="1.1" id="图层_1" xmlns="http://www.w3.org/2000/svg" xmlns:xlink="http://www.w3.org/1999/xlink" x="0px" y="0px"
	 viewBox="0 0 48 48" style="enable-background:new 0 0 48 48;" xml:space="preserve">
<style type="text/css">
	.st0{fill-rule:evenodd;clip-rule:evenodd;fill:none;}
	.st1{fill-rule:evenodd;clip-rule:evenodd;fill:#E14D57;}
</style>
<rect y="0" class="st0" width="48" height="38"/>
<g>
	<g>
		<path class="st1" d="M47.6,38.5l-18.2-32c-0.8-1.4-2.6-1.9-4-1.1c-1.4,0.8-1.9,2.7-1.1,4.1l18.2,32c0.8,1.4,2.6,1.9,4,1.1
			C47.9,41.8,48.4,39.9,47.6,38.5z M18.7,6.5c-0.8-1.4-2.6-1.9-4-1.1c-1.4,0.8-1.9,2.7-1.1,4.1l18.2,32c0.8,1.4,2.6,1.9,4,1.1
			c1.4-0.8,1.9-2.7,1.1-4.1L18.7,6.5z M18.2,24.6c-0.8-1.4-2.6-1.9-4-1.1c-1.4,0.8-1.9,2.7-1.1,4.1l8,13.9c0.8,1.4,2.6,1.9,4,1.1
			c1.4-0.8,1.9-2.7,1.1-4.1L18.2,24.6z M5.5,21.5c-0.8-1.4-2.6-1.9-4-1.1c-1.4,0.8-1.9,2.7-1.1,4.1l10.1,17c0.8,1.4,2.6,1.9,4,1.1
			c1.4-0.8,1.9-2.7,1.1-4.1L5.5,21.5z"/>
	</g>
</g>
</svg>
